<?xml version="1.0" encoding="UTF-8"?>
<svg id="Layer_2" data-name="Layer 2" xmlns="http://www.w3.org/2000/svg" xmlns:xlink="http://www.w3.org/1999/xlink" viewBox="0 0 204.7 287.04">
  <defs>
    <style>
      .cls-1 {
        fill: #c1272d;
      }

      .cls-2 {
        fill: url(#linear-gradient);
      }
    </style>
    <linearGradient id="linear-gradient" x1="19.47" y1="143.89" x2="185.11" y2="143.89" gradientUnits="userSpaceOnUse">
      <stop offset="0" stop-color="#96272d"/>
      <stop offset=".12" stop-color="#9c272d"/>
      <stop offset=".28" stop-color="#af272d"/>
      <stop offset=".4" stop-color="#c1272d"/>
      <stop offset=".95" stop-color="#d51b39"/>
    </linearGradient>
  </defs>
  <g id="Layer_1-2" data-name="Layer 1">
    <path class="cls-1" d="M109.68,202.14l6.97,22.38,49.36-112.53h-16.68l-39.66,90.15Z"/>
    <path class="cls-1" d="M149.64,111.99c-5.93,0-24.39,13.49-29.67,19.29,7.81-2.56,26.82-7.15,34.41-10.31,3.79-1.58,7.85-7.25,11.58-8.98"/>
    <path class="cls-2" d="M55.2,170.61c15.88,35.83,43.58,100.12,43.58,100.12l-7.42,16.32c-6.13-14.14-11.07-25.47-17.21-39.61-9.38-21.63-18.77-43.26-28.15-64.89-2.82-6.49-6.06-12.71-6.75-19.86-1.61-16.78,6.41-33.58,18.07-45.27,13.92-13.96,32.58-22.06,51.14-28.71,18.56-6.65,47.92-15.58,58.08-23.42,18.27-14.1,28.65-41.63,37.56-64.54,2.97,23.74-5.93,47.47-11.87,54.89-8.54,10.68-13.35,16.32-32.64,25.22-17.51,8.08-59.34,20.77-75.54,29.7-9.44,5.21-17.28,14.81-23.86,23.7-8.09,10.93-10.52,23.93-5.01,36.36Z"/>
    <polyline points="0 24.45 103.64 263.39 114.52 235.45 12.4 0"/>
    <path d="M113.7,199.17l6.97,22.38,49.36-112.53h-16.68l-39.66,90.15Z"/>
    <path d="M153.67,109.03c-5.93,0-24.39,13.49-29.67,19.29,7.81-2.56,26.82-7.15,34.41-10.31,3.79-1.58,7.85-7.25,11.58-8.98"/>
  </g>
</svg>